:SAMPLES-PER-SECOND 30
:FULLY-SPECIFIED
:DEGREES
62
root  41.8096 37.4538 -0.606118 59.3587 -85.8894 -62.5561
RightUpLeg  -17.4719 -4.74431 5.70504
RightLeg  30.4059 -1.0187 -0.902634
RightFoot  -9.60549 -0.00111977 -4.17565
RightToes  -2.32831e-009 0 -3.6325e-017
Spine  5.52249 -1.41837 12.1645
Spine1  7.69369 -0.165297 0.911357
HEad  -13.8195 -3.75491 -4.15534
LeftShoulder1  -0.550335 4.93131 -32.3986
LeftArm  10.9709 3.15792 -44.4148
LeftForeArm  26.3284 -14.9221 -8.33823
LeftHand  -0.240958 10.2149 -4.23428
RightShoulder  -0.914548 -6.03296 29.579
RightArm  11.5869 -6.30074 44.4406
RightForeArm  17.7949 7.53335 6.23524
RightHand  -0.279274 9.08203 -2.63162
LeftUpLeg  -4.18827 2.11835 5.5503
LeftLeg  61.129 -0.237287 0.117216
LeftFoot  6.98952 0.935718 -6.05904
LeftToes  8.91272e-011 -1.70619e-011 7.36378e-012
63
root  40.5074 37.6611 -0.681695 56.6077 -86.3074 -59.9275
RightUpLeg  -14.6563 -4.6246 5.2328
RightLeg  29.7297 -1.16961 -0.978409
RightFoot  -11.4541 -0.0813698 -4.00947
RightToes  -2.32831e-009 0 -3.6325e-017
Spine  5.61234 -1.06652 12.5925
Spine1  7.54307 0.458056 0.101777
HEad  -12.8914 -4.00309 -4.29139
LeftShoulder1  -0.625906 5.12263 -32.511
LeftArm  11.1494 4.87105 -43.5536
LeftForeArm  24.7034 -15.676 -7.83279
LeftHand  -0.181995 9.38567 -3.63889
RightShoulder  -0.907145 -6.02451 29.4077
RightArm  12.7919 -4.12072 44.6053
RightForeArm  17.6055 8.04802 6.66981
RightHand  -0.287746 9.9296 -2.58013
LeftUpLeg  -9.04475 1.5965 4.97833
LeftLeg  63.4848 -0.871928 -1.26721
LeftFoot  4.91388 0.808244 -5.86652
LeftToes  8.91272e-011 -1.70619e-011 7.36378e-012
64
root  39.1711 37.8843 -0.743518 59.6958 -87.1882 -63.1349
RightUpLeg  -11.5061 -4.43852 4.51893
RightLeg  28.4021 -0.851528 -0.75353
RightFoot  -13.0097 -0.145167 -3.92846
RightToes  -2.32831e-009 0 -3.6325e-017
Spine  5.6163 -0.408879 13.3018
Spine1  7.36981 1.52822 -1.55813
HEad  -12.4157 -4.25883 -3.75949
LeftShoulder1  -0.591387 5.04364 -32.2577
LeftArm  12.9329 6.54128 -42.7221
LeftForeArm  21.2482 -16.7966 -7.29547
LeftHand  -0.197374 10.176 -3.27284
RightShoulder  -0.911174 -6.06109 29.0469
RightArm  14.2217 -2.13088 45.0607
RightForeArm  16.862 9.42508 6.92844
RightHand  -0.304168 9.76891 -2.72379
LeftUpLeg  -13.2006 1.64881 4.15306
LeftLeg  62.6502 -1.35804 -2.24777
LeftFoot  3.04292 0.652426 -5.3034
LeftToes  8.91272e-011 -1.70619e-011 7.36378e-012
65
root  37.8179 38.0993 -0.788399 59.9376 -87.9289 -63.5766
RightUpLeg  -7.96468 -5.10709 3.61552
RightLeg  26.5339 0.0732059 -0.225818
RightFoot  -14.3445 -0.201348 -3.97177
RightToes  -2.32831e-009 0 -3.6325e-017
Spine  5.65977 0.124101 13.5932
Spine1  7.04028 2.26661 -2.81687
HEad  -11.5645 -4.74283 -3.88775
LeftShoulder1  -0.602189 5.06887 -32.3271
LeftArm  12.4802 8.06028 -41.8499
LeftForeArm  20.5799 -17.2544 -6.91676
LeftHand  -0.183991 9.83549 -3.25257
RightShoulder  -0.840435 -5.90119 28.4554
RightArm  15.551 -0.44147 45.4564
RightForeArm  14.2679 11.5029 6.73158
RightHand  -0.367641 10.701 -3.06062
LeftUpLeg  -16.6128 1.58707 3.27809
LeftLeg  59.026 -1.80648 -2.7089
LeftFoot  0.463136 0.467612 -4.55586
LeftToes  8.91272e-011 -1.70619e-011 7.36378e-012
66
root  36.5127 38.2655 -0.821919 80.693 -89.0648 -84.357
RightUpLeg  -4.84025 -5.70839 2.36272
RightLeg  24.8554 1.40585 0.356426
RightFoot  -15.5526 -0.25466 -4.07649
RightToes  -2.32831e-009 0 -3.6325e-017
Spine  6.14199 0.752646 13.8648
Spine1  6.14937 3.1866 -4.67459
HEad  -10.6285 -5.29626 -4.26716
LeftShoulder1  -0.557302 4.96231 -32.0632
LeftArm  13.1992 9.51416 -41.1183
LeftForeArm  19.6055 -18.0925 -6.40681
LeftHand  -0.195567 10.4774 -3.00944
RightShoulder  -0.824956 -5.8842 28.0497
RightArm  17.7356 1.30197 45.7313
RightForeArm  10.871 14.4786 6.11981
RightHand  -0.380361 10.874 -3.12368
LeftUpLeg  -19.2992 2.1237 2.20351
LeftLeg  52.7252 -2.06981 -2.49514
LeftFoot  -1.49871 0.377087 -4.28135
LeftToes  8.91272e-011 -1.70619e-011 7.36378e-012
67
root  35.1995 38.4055 -0.852689 142.734 -89.5687 -146.462
RightUpLeg  -1.46568 -6.14513 1.17274
RightLeg  22.6988 2.47428 0.595716
RightFoot  -16.5624 -0.295259 -4.01295
RightToes  -2.32831e-009 0 -3.6325e-017
Spine  6.62443 1.16924 13.7497
Spine1  5.37505 3.77792 -6.42426
HEad  -10.7178 -5.45567 -3.77698
LeftShoulder1  -0.526457 4.90095 -31.5386
LeftArm  12.2385 10.9975 -40.8343
LeftForeArm  20.3511 -18.3315 -6.13247
LeftHand  -0.221739 10.324 -3.70722
RightShoulder  -0.838579 -5.92636 28.0107
RightArm  20.8348 3.56408 45.6371
RightForeArm  6.92414 17.7115 5.43971
RightHand  -0.427819 11.1578 -3.41231
LeftUpLeg  -20.8563 2.60716 1.18925
LeftLeg  43.8328 -1.8532 -1.50152
LeftFoot  -2.05165 0.354688 -4.21449
LeftToes  8.91272e-011 -1.70619e-011 7.36378e-012
68
root  33.9002 38.5197 -0.878683 -153.082 -88.7985 149.612
RightUpLeg  1.63931 -6.75364 0.104114
RightLeg  20.2749 3.821 0.876261
RightFoot  -17.1077 -0.323224 -4.12538
RightToes  -2.32831e-009 0 -3.6325e-017
Spine  6.29228 1.77432 13.1411
Spine1  5.54769 4.28467 -7.19422
HEad  -11.3058 -6.01434 -3.89374
LeftShoulder1  -0.487313 4.79426 -31.6207
LeftArm  11.6864 12.1238 -40.3529
LeftForeArm  19.9832 -18.4224 -6.03038
LeftHand  -0.234408 10.4443 -3.88455
RightShoulder  -0.793948 -5.83163 27.4896
RightArm  21.1236 6.20097 46.0673
RightForeArm  5.99957 19.9224 4.84625
RightHand  -0.444106 11.1433 -3.52914
LeftUpLeg  -21.5477 3.80031 0.444275
LeftLeg  32.5183 -1.8684 -0.937991
LeftFoot  -1.84533 0.351348 -4.09374
LeftToes  8.91272e-011 -1.70619e-011 7.36378e-012
69
root  32.5827 38.585 -0.88611 -149.233 -88.2955 145.985
RightUpLeg  5.02085 -7.40062 -0.872474
RightLeg  17.4322 4.95563 1.02408
RightFoot  -17.5546 -0.324402 -3.78531
RightToes  -2.32831e-009 0 -3.6325e-017
Spine  6.16995 1.91505 12.8056
Spine1  5.52127 4.47921 -8.38796
HEad  -11.4478 -5.27188 -3.81341
LeftShoulder1  -0.503648 4.83321 -31.7398
LeftArm  10.3421 13.4159 -39.7179
LeftForeArm  20.0652 -18.0664 -6.13985
LeftHand  -0.213443 10.0995 -3.7225
RightShoulder  -0.767525 -5.77152 27.2109
RightArm  21.7765 9.04758 46.3671
RightForeArm  5.21445 21.6646 4.66557
RightHand  -0.306981 11.3012 -2.55266
LeftUpLeg  -21.2457 3.86021 -0.0451681
LeftLeg  19.7931 -1.25429 -0.250111
LeftFoot  -1.31366 0.410662 -4.59735
LeftToes  8.91272e-011 -1.70619e-011 7.36378e-012
70
root  31.2524 38.5806 -0.87565 -151.216 -87.6299 148.107
RightUpLeg  8.382 -7.72651 -1.81526
RightLeg  14.7766 6.12314 1.05806
RightFoot  -17.9484 -0.320894 -3.45777
RightToes  -2.32831e-009 0 -3.6325e-017
Spine  5.81121 2.21295 11.891
Spine1  6.28226 4.74938 -8.63307
HEad  -11.7867 -4.94357 -3.49905
LeftShoulder1  -0.531846 4.90081 -31.9264
LeftArm  8.94707 14.3476 -39.3711
LeftForeArm  20.749 -17.4112 -6.40317
LeftHand  -0.20457 9.76846 -3.8178
RightShoulder  -0.700413 -5.60973 26.5879
RightArm  20.9176 11.7428 47.0762
RightForeArm  5.32618 22.7916 4.66065
RightHand  -0.374197 11.1982 -3.02912
LeftUpLeg  -20.1694 3.13083 0.0512703
LeftLeg  7.16176 0.220954 -0.178926
LeftFoot  -1.8724 0.489865 -5.76454
LeftToes  8.91272e-011 -1.70619e-011 7.36378e-012
71
root  29.8477 38.4616 -0.849742 -152.188 -87.1384 148.972
RightUpLeg  11.8112 -7.87009 -2.71556
RightLeg  12.8565 7.141 0.938942
RightFoot  -18.8038 -0.287899 -2.47132
RightToes  -2.32831e-009 0 -3.6325e-017
Spine  5.58256 2.3421 10.8552
Spine1  6.9477 4.89582 -8.73891
HEad  -12.6386 -4.99458 -3.22907
LeftShoulder1  -0.539371 4.92352 -31.8475
LeftArm  6.97822 15.4627 -39.2754
LeftForeArm  22.3131 -16.4934 -6.73273
LeftHand  -0.214412 10.0541 -3.78215
RightShoulder  -0.647162 -5.47386 26.1531
RightArm  20.5809 14.1661 47.8655
RightForeArm  5.08073 23.3363 4.73943
RightHand  -0.419251 11.5768 -3.28228
LeftUpLeg  -19.2475 2.23807 0.354094
LeftLeg  -1.83745 2.20321 -0.830498
LeftFoot  -3.00594 0.503022 -6.72173
LeftToes  8.91272e-011 -1.70619e-011 7.36378e-012
